<svg width="30" height="31" viewBox="0 0 30 31" fill="none" xmlns="http://www.w3.org/2000/svg">
<path d="M22.5107 16.5094H21.325L20.9048 16.1042C22.3756 14.3932 23.2612 12.172 23.2612 9.75558C23.2612 4.3675 18.8937 0 13.5056 0C8.1175 0 3.75 4.3675 3.75 9.75558C3.75 15.1437 8.1175 19.5112 13.5056 19.5112C15.922 19.5112 18.1432 18.6256 19.8542 17.1548L20.2594 17.575V18.7607L27.7637 26.25L30 24.0137L22.5107 16.5094V16.5094ZM13.5056 16.5094C9.76844 16.5094 6.75172 13.4927 6.75172 9.75558C6.75172 6.01844 9.76844 3.00172 13.5056 3.00172C17.2427 3.00172 20.2594 6.01844 20.2594 9.75558C20.2594 13.4927 17.2427 16.5094 13.5056 16.5094Z" fill="black"/>
</svg>
